<svg role="img" viewBox="0 0 24 24" xmlns="http://www.w3.org/2000/svg">
  <title>GitHub</title>
  <path d="M12 0C5.37 0 0 5.373 0 12c0 5.303 3.438 9.8 8.205 11.387.6.113.82-.258.82-.577
  0-.285-.01-1.04-.015-2.04-3.338.725-4.042-1.61-4.042-1.61C4.422 17.07 3.633 16.7 3.633
  16.7c-1.087-.744.084-.729.084-.729 1.205.084 1.84 1.236 1.84 1.236 1.07 1.835 2.809
  1.305 3.495.998.108-.775.418-1.305.762-1.605-2.665-.305-5.466-1.335-5.466-5.933
  0-1.31.467-2.38 1.235-3.22-.123-.303-.535-1.523.117-3.176 0 0 1.008-.322 3.3
  1.23a11.52 11.52 0 0 1 3-.405c1.02.005 2.045.138 3 .405 2.28-1.552 3.285-1.23
  3.285-1.23.655 1.653.243 2.873.12 3.176.77.84 1.23 1.91 1.23 3.22 0 4.61-2.805
  5.625-5.475 5.922.43.37.813 1.102.813 2.222 0 1.606-.015 2.898-.015 3.293 0
  .32.21.694.825.576C20.565 21.795 24 17.3 24 12c0-6.627-5.373-12-12-12z"></path>
</svg>
